<?xml version="1.0" standalone="no"?>
<!DOCTYPE svg PUBLIC "-//W3C//DTD SVG 20010904//EN"
 "http://www.w3.org/TR/2001/REC-SVG-20010904/DTD/svg10.dtd">
<svg version="1.0" xmlns="http://www.w3.org/2000/svg"
 width="746.000000pt" height="746.000000pt" viewBox="0 0 746.000000 746.000000"
 preserveAspectRatio="xMidYMid meet">
<metadata>
Created by potrace 1.14, written by Peter Selinger 2001-2017
</metadata>
<g transform="translate(0.000000,746.000000) scale(0.100000,-0.100000)"
fill="#000000" stroke="none">
<path d="M3490 7453 c-19 -1 -87 -8 -150 -14 -253 -24 -553 -90 -815 -179
-1198 -409 -2111 -1403 -2414 -2630 -71 -285 -99 -494 -107 -800 -29 -1027
361 -2005 1091 -2735 614 -614 1400 -985 2285 -1077 172 -17 566 -14 745 6
725 83 1377 353 1940 803 140 112 390 356 510 498 459 545 759 1222 850 1918
100 777 -47 1582 -413 2255 -663 1220 -1935 1973 -3311 1960 -97 0 -192 -3
-211 -5z m-90 -524 c-138 -29 -259 -72 -395 -140 -159 -79 -287 -171 -415
-299 -663 -664 -630 -1734 74 -2358 185 -164 424 -289 674 -351 127 -31 197
-40 407 -51 224 -11 340 -31 501 -85 466 -156 863 -553 1014 -1015 55 -168 71
-269 77 -470 4 -157 2 -203 -16 -307 -74 -439 -329 -835 -695 -1078 -301 -200
-621 -288 -995 -271 -722 32 -1338 256 -1901 692 -147 114 -420 386 -534 534
-320 413 -532 867 -630 1353 -126 624 -67 1278 169 1858 159 389 384 734 679
1037 272 280 526 466 876 641 327 163 660 266 1020 315 158 21 204 19 90 -5z"/>
</g>
</svg>
